<svg width="105" height="105" viewBox="0 0 105 105" fill="none" xmlns="http://www.w3.org/2000/svg">
<path d="M52.5 6.5625C27.1318 6.5625 6.5625 27.1318 6.5625 52.5C6.5625 77.8682 27.1318 98.4375 52.5 98.4375C77.8682 98.4375 98.4375 77.8682 98.4375 52.5C98.4375 27.1318 77.8682 6.5625 52.5 6.5625ZM72.3413 37.4985L50.7466 67.4399C50.4448 67.8612 50.0469 68.2045 49.5859 68.4413C49.1249 68.6781 48.6142 68.8016 48.0959 68.8016C47.5777 68.8016 47.0669 68.6781 46.606 68.4413C46.145 68.2045 45.7471 67.8612 45.4453 67.4399L32.6587 49.7212C32.269 49.1777 32.6587 48.4189 33.3252 48.4189H38.1343C39.1802 48.4189 40.1748 48.9214 40.79 49.7827L48.0908 59.9136L64.21 37.5601C64.8252 36.709 65.8096 36.1963 66.8657 36.1963H71.6748C72.3413 36.1963 72.731 36.9551 72.3413 37.4985Z" fill="#2FB1E1"/>
</svg>
