<svg width="335" height="335" viewBox="0 0 335 335" fill="none" xmlns="http://www.w3.org/2000/svg">
<path fill-rule="evenodd" clip-rule="evenodd" d="M220.263 33.3294C209.148 33.3294 198.489 37.7445 190.63 45.6034L62.3534 173.88C49.2562 186.978 41.8982 204.741 41.8982 223.264C41.8982 241.786 49.2562 259.549 62.3534 272.647C75.4506 285.744 93.2142 293.102 111.736 293.102C130.259 293.102 148.022 285.744 161.12 272.647L289.397 144.37C294.848 138.918 303.686 138.918 309.137 144.37C314.588 149.821 314.588 158.659 309.137 164.11L180.86 292.387C162.527 310.719 137.663 321.018 111.736 321.018C85.8102 321.018 60.9459 310.719 42.6133 292.387C24.2807 274.054 13.9816 249.19 13.9816 223.264C13.9816 197.337 24.2807 172.473 42.6133 154.14L170.89 25.8633C183.985 12.769 201.744 5.4127 220.263 5.4127C238.781 5.4127 256.54 12.769 269.635 25.8633C282.729 38.9576 290.085 56.7173 290.085 75.2354C290.085 93.7535 282.729 111.513 269.635 124.608L141.218 252.885C133.362 260.741 122.707 265.154 111.597 265.154C100.487 265.154 89.8318 260.741 81.9758 252.885C74.1198 245.029 69.7064 234.374 69.7064 223.264C69.7064 212.154 74.1198 201.498 81.9758 193.642L200.488 75.27C205.942 69.8221 214.78 69.8273 220.228 75.2816C225.676 80.7359 225.671 89.5738 220.216 95.0217L101.716 213.383C99.0989 216.003 97.623 219.56 97.623 223.264C97.623 226.97 99.0953 230.524 101.716 233.145C104.336 235.765 107.891 237.237 111.597 237.237C115.303 237.237 118.857 235.765 121.478 233.145L249.895 104.867C257.75 97.0091 262.169 86.3471 262.169 75.2354C262.169 64.1212 257.753 53.4623 249.895 45.6034C242.036 37.7445 231.377 33.3294 220.263 33.3294Z" fill="white"/>
</svg>
